# xmcd CD database file
#
# Track frame offsets:
#	150
#	12726
#	24278
#	42098
#	50756
#	62232
#	76280
#	88691
#	98619
#
# Disc length: 1542 seconds
#
# Revision: 0
# Processed by: cddbd v1.5.2PL0 Copyright (c) Steve Scherf et al.
# Submitted via: CDex 2.21
#
DISCID=6a060409
DTITLE=Texas Ollie - Songs from the Heart
DYEAR=1900
DGENRE=Country
TTITLE0=Better Man
TTITLE1=Black Hills of Dakota
TTITLE2=Rhinestone Cowboy
TTITLE3=Fore Legged Friend
TTITLE4=Silver Wings
TTITLE5=Cowboy Rides away
TTITLE6=Devil Woman
TTITLE7=My Sweet Darling
TTITLE8=If tomorrow never comes
EXTD=
EXTT0=
EXTT1=
EXTT2=
EXTT3=
EXTT4=
EXTT5=
EXTT6=
EXTT7=
EXTT8=
PLAYORDER=
